<?xml version="1.0" encoding="UTF-8" standalone="no"?>
<svg
   xmlns:dc="http://purl.org/dc/elements/1.1/"
   xmlns:cc="http://creativecommons.org/ns#"
   xmlns:rdf="http://www.w3.org/1999/02/22-rdf-syntax-ns#"
   xmlns:svg="http://www.w3.org/2000/svg"
   xmlns="http://www.w3.org/2000/svg"
   xmlns:sodipodi="http://sodipodi.sourceforge.net/DTD/sodipodi-0.dtd"
   xmlns:inkscape="http://www.inkscape.org/namespaces/inkscape"
   version="1.1"
   id="DH-NL-RGB-Logo"
   x="0px"
   y="0px"
   width="1013.5656"
   height="318.27209"
   viewBox="0 0 1013.5656 318.27209"
   xml:space="preserve"
   sodipodi:docname="logo.svg"
   inkscape:version="1.0.2 (e86c8708, 2021-01-15)"><metadata
   id="metadata1034"><rdf:RDF><cc:Work
       rdf:about=""><dc:format>image/svg+xml</dc:format><dc:type
         rdf:resource="http://purl.org/dc/dcmitype/StillImage" /><dc:title></dc:title></cc:Work></rdf:RDF></metadata><defs
   id="defs1032" /><sodipodi:namedview
   pagecolor="#ffffff"
   bordercolor="#666666"
   borderopacity="1"
   objecttolerance="10"
   gridtolerance="10"
   guidetolerance="10"
   inkscape:pageopacity="0"
   inkscape:pageshadow="2"
   inkscape:window-width="1920"
   inkscape:window-height="1147"
   id="namedview1030"
   showgrid="false"
   inkscape:zoom="0.59712282"
   inkscape:cx="503.62017"
   inkscape:cy="154.08234"
   inkscape:window-x="0"
   inkscape:window-y="25"
   inkscape:window-maximized="0"
   inkscape:current-layer="g1025" />
<g
   id="g1027"
   transform="translate(-169.60817,-129.3822)">
	<rect
   y="0.00049499999"
   style="fill:none"
   width="1346.4567"
   height="566.92908"
   id="rect833"
   x="0" />
	<g
   id="g1025">
		<path
   style="fill:#155429"
   d="m 906.64105,252.49699 c -8.20117,0 -14.00097,4.10061 -17.00097,10.10061 l -0.10059,-0.0996 c 0.5,-2.7002 0.70019,-6.70119 0.70019,-9.10059 -6.60058,-0.2002 -14.20123,0.0996 -20.50097,0.8994 v 7.70119 c 2.90039,0.19921 6.29974,0.59961 8.70019,1 v 40.20221 h 12.50098 v -24.00199 c 0,-8.90042 5.10059,-16.30081 11.7002,-16.30081 4.90039,0 6.40039,3.2002 6.40039,8.50101 v 31.80179 h 12.4013 V 268.2978 c 0,-8.70019 -3.60058,-15.8008 -14.80072,-15.8008 z M 779.34119,235.2959 c -8.30072,0 -16.60053,0.4004 -22.00092,0.4004 h -8.40039 v 7.79979 c 2.59961,0.60051 5.7002,1.10051 8.7002,1.30071 v 49.30281 c -3,0.20019 -6.10059,0.70019 -8.7002,1.2998 v 7.80079 h 8.7002 c 3.2998,0 11.70019,0.40029 18.70111,0.40029 22.00097,0 37.20221,-12.1015 37.20221,-35.3027 0,-23.60149 -13.30085,-33.00189 -34.20221,-33.00189 z m -1.79981,57.40329 c -2.5,0 -5.30072,-0.0996 -7.20019,-0.39939 v -46.1035 c 2.09967,-0.19931 5.09967,-0.29991 8.09967,-0.29991 15.6015,0 21.50195,8.70121 21.50195,23.4014 0,16.2012 -9.30078,23.4014 -22.40143,23.4014 z m 66.69831,-40.2022 c -14.70124,0 -23.40143,11.40041 -23.40143,26.30181 0,17.501 8.70019,25.4014 24.50103,25.4014 5.9004,0 12.20118,-1.09971 17.80176,-3 l -1.29986,-9.30079 c -5.10053,1.7002 -10.1015,2.60059 -15.00092,2.60059 -9.30078,0 -13.30078,-4.7002 -13.40137,-13.60159 h 31.00196 c 0,0 0.40033,-3.59961 0.40033,-7.29981 0,-11.80081 -6.10053,-21.10161 -20.6015,-21.10161 z m -10.7002,20.001 c 0.69922,-6.79978 4.70019,-10.80079 10.10059,-10.80079 5.5,0 9,3.7002 8.7998,10.80079 z m 290.93501,-2.59958 c 0,-11.00101 -4.8008,-17.50101 -20.1015,-17.50101 -6.1005,0 -13.0011,1.5 -18.5011,3.5 l 1.9006,9.40039 c 4.7996,-1.90039 10.6005,-3.2998 15.1005,-3.2998 6.7002,0 9,2.7998 9,8.70022 v 2.09958 c -17.4003,0 -28.8018,5.60062 -28.8018,17.30182 0,8.10059 5.3007,14.10059 14.2013,14.10059 7.5009,0 13.6005,-4 16.0009,-9.60059 l 0.1005,0.0996 c -0.4004,2.60061 -0.5,5.60061 -0.5,8.60061 6.4004,0.2002 14,-0.0996 20.3008,-0.89941 v -7.7012 c -2.9004,-0.19919 -6.3008,-0.59958 -8.7002,-1 v -23.80078 z m -12.6015,12.60058 c 0,5.90042 -4.2001,12.10062 -10.6005,12.10062 -3.7998,0 -6.0996,-2.60062 -6.0996,-6 0,-4.30081 3.5996,-7.60062 16.7001,-7.60062 z m 53.2002,-29.90239 c -17.5011,0 -27.1016,11.501 -27.1016,28.30181 0,15.2012 6.5996,23.30179 18.5011,23.30179 6.6005,0 12.2002,-3.60059 14.8007,-9.4004 l 0.2001,0.0996 c -0.5,2.60059 -0.6005,4.80079 -0.6005,7.30079 v 3.10049 c 0,8.5 -4.5,12.2998 -14.0011,12.2998 -4.9003,0 -10.2998,-0.89938 -14.7001,-2.5 l -1.2002,11.30082 c 4.2002,1 9.6005,1.70019 15.2013,1.70019 18.9003,0 27.0008,-8.90039 27.0008,-24.00101 V 254.0976 c -5.4003,-0.9004 -11.2002,-1.501 -18.1005,-1.501 z m 5.7002,24.60161 c 0,8.7012 -4.1005,16.60159 -11.0009,16.60159 -5.9006,0 -8.7004,-4.80081 -8.7004,-14.10061 0,-12.50098 5.2998,-17.2012 12.8009,-17.2012 2.5,0 4.7002,0.2998 6.9004,0.7998 z M 993.81708,243.6963 c 2.2998,0.5 5,0.9003 7.40042,1.1005 v 18.00099 H 972.11591 V 244.7968 c 2.39947,-0.2002 5.09967,-0.6005 7.40039,-1.1005 v -8 h -27.8017 v 7.79979 c 2.59955,0.60051 5.70019,1.10051 8.70019,1.30071 v 49.30281 c -3,0.20019 -6.10064,0.70019 -8.70019,1.2998 v 7.80079 h 27.8017 v -8 c -2.30072,-0.50101 -5.00092,-0.9004 -7.40039,-1.10059 V 273.7988 h 29.10159 v 20.30081 c -2.40042,0.20019 -5.10062,0.59958 -7.40042,1.10059 v 8 h 27.80072 v -7.80079 c -2.5996,-0.59961 -5.7002,-1.09961 -8.7002,-1.2998 V 244.7968 c 3,-0.2002 6.1006,-0.7002 8.7002,-1.30071 v -7.79979 h -27.80072 z m 75.55782,26.20211 c 0,-11.00101 -4.8008,-17.50101 -20.1015,-17.50101 -6.1005,0 -13.0009,1.5 -18.5009,3.5 l 1.9004,9.40039 c 4.7998,-1.90039 10.6005,-3.2998 15.1005,-3.2998 6.7001,0 9,2.7998 9,8.70022 v 2.09958 c -17.4004,0 -28.8018,5.60062 -28.8018,17.30182 0,8.10059 5.3009,14.10059 14.2013,14.10059 7.5008,0 13.6005,-4 16.0008,-9.60059 l 0.1006,0.0996 c -0.4004,2.60061 -0.5,5.60061 -0.5,8.60061 6.4004,0.2002 14,-0.0996 20.3008,-0.89941 v -7.7012 c -2.9004,-0.19919 -6.3008,-0.59958 -8.7002,-1 v -23.80078 z m -12.6015,12.60058 c 0,5.90042 -4.2002,12.10062 -10.6005,12.10062 -3.7999,0 -6.0997,-2.60062 -6.0997,-6 0,-4.30081 3.5997,-7.60062 16.7002,-7.60062 z"
   id="path835" />
		<g
   id="g1023">
			<path
   style="fill:#1d6b34"
   d="m 555.03302,399.4653 h -86.30063 v 48.189 h 86.30063 c 62.76007,0 85.89886,-4.77039 85.89886,-4.77039 v -48.74902 c 0,0 -23.35986,5.33041 -85.89886,5.33041 z"
   id="path837" />
			<path
   style="fill:#1d6b34"
   d="M 356.83401,387.26889 372.521,424.0455 c 11.63009,-0.12811 23.44119,-0.19601 35.41259,-0.19601 18.16742,0 35.9733,0.15371 53.3144,0.44452 v -33.612 l 72.39849,-9.3711 c 0,0 -10.05969,-1.74011 -37.40728,-3.74121 -27.34671,-2 -66.6225,-1.27041 -66.6225,-1.27041 0,0 -15.75391,5.29592 -21.832,6.3554 -6.07721,-1.05948 -21.83011,-6.3554 -21.83011,-6.3554 0,0 -38.97989,-0.72809 -66.3266,1.27041 -27.30881,1.99579 -45.49741,4.87161 -45.60559,4.88669 z"
   id="path839" />
			<path
   style="fill:#155429"
   d="m 353.32349,391.90381 0.1344,32.40948 c 6.2933,-0.108 12.64971,-0.19729 19.06311,-0.26779 l -15.68699,-36.77661 -82.81161,-4.8125 v 9.27841 c 55.9101,-0.13571 79.30109,0.16901 79.30109,0.16901 z"
   id="path841" />
			<path
   style="fill:#1d6b34"
   d="m 345.83899,399.4653 h -85.3046 c -62.539,0 -85.89889,-5.33041 -85.89889,-5.33041 v 48.74902 c 0,0 23.1389,4.77039 85.89889,4.77039 h 85.3046 z"
   id="path843" />
			<path
   style="fill:#155429"
   d="m 182.2822,395.41599 c -5.26551,-0.7385 -7.6467,-1.2811 -7.6467,-1.2811 v 48.74902 c 0,0 8.34089,1.7182 28.57429,3.09229 -13.4221,-15.15351 -19.9066,-33.93409 -20.92759,-50.56021 z"
   id="path845" />
			<g
   id="g857">
				<path
   style="fill:#ffffff"
   d="m 203.27429,411.11179 h 9.1714 v 2.87011 h -2.48539 l 5.8457,16.20648 c 0.2446,0.66562 0.3848,1.43561 0.56009,2.13532 h 0.0698 c 0.17479,-0.69971 0.31489,-1.4697 0.56,-2.13532 l 5.74079,-16.20648 h -2.83549 v -2.87011 h 8.961 v 2.87011 h -2.20511 l -8.40089,21.6323 h -4.34081 l -8.50589,-21.6323 h -2.13521 z"
   id="path847" />
				<path
   style="fill:#ffffff"
   d="m 231.1908,432.74411 h 2.41499 l 0.14011,-18.76221 h -2.5551 v -2.87011 h 10.8862 c 5.04049,0 7.42039,2.9053 7.42039,6.47561 0,4.23529 -2.72999,6.16059 -5.8452,6.47559 v 0.0703 c 1.3647,0.10489 2.2749,1.25971 3.11521,2.6601 l 2.6602,4.4805 c 0.70019,1.15481 1.3652,1.47021 2.17041,1.47021 h 0.91018 v 2.87009 h -2.2754 c -2.06549,0 -3.0103,-0.2099 -4.4453,-2.5903 l -3.3604,-5.7056 c -1.01509,-1.75 -1.54049,-2.13519 -2.69529,-2.13519 h -2.1006 l -0.0698,7.561 h 2.83539 v 2.87009 h -9.20599 v -2.87009 z m 9.48579,-10.64111 c 2.76511,0 4.69041,-1.47019 4.69041,-4.09571 0,-2.5552 -1.57521,-4.02539 -4.41011,-4.02539 h -3.2554 l -0.0703,8.1211 h 3.04539 z"
   id="path849" />
				<path
   style="fill:#ffffff"
   d="m 255.51549,432.74411 h 2.45021 l 0.1401,-18.76221 h -2.8354 v -2.87011 h 17.2216 l 0.1402,6.4404 h -3.2554 l -0.21002,-3.57029 h -7.1059 l -0.0698,7.56101 h 7.00052 v 3.08008 h -7.00052 l -0.0703,8.12112 h 7.45599 l 0.27979,-3.99072 h 3.29049 l -0.27978,6.86081 h -17.15181 v -2.87009 z"
   id="path851" />
				<path
   style="fill:#ffffff"
   d="m 276.89978,432.74411 h 2.48532 l 0.13968,-18.76221 h -2.625 v -2.87011 h 11.62112 c 7.87589,0 12.39109,4.58541 12.39109,11.69091 0,7.2461 -4.58548,12.8115 -12.4263,12.8115 h -11.58591 z m 10.32611,0 c 5.98541,0 9.3457,-3.64062 9.3457,-9.76611 0,-5.49561 -3.15039,-8.9961 -9.17089,-8.9961 h -3.95551 l -0.13971,18.76221 z"
   id="path853" />
				<path
   style="fill:#ffffff"
   d="m 303.67508,432.74411 h 2.45023 l 0.1397,-18.76221 h -2.83502 v -2.87011 h 17.22171 l 0.14008,6.4404 h -3.25528 l -0.21002,-3.57029 h -7.1059 l -0.0699,7.56101 h 7.00048 v 3.08008 h -7.00048 l -0.0703,8.12112 h 7.45612 l 0.27978,-3.99072 h 3.2905 l -0.2803,6.86081 h -17.1514 z"
   id="path855" />
			</g>
			<g
   id="g869">
				<path
   style="fill:#ffffff"
   d="m 493.83319,432.74411 h 2.41501 l 0.14069,-18.76221 h -2.5557 v -2.87011 h 10.8858 c 5.04102,0 7.42078,2.9053 7.42078,6.47561 0,4.23529 -2.73038,6.16059 -5.84567,6.47559 v 0.0703 c 1.36529,0.10489 2.27539,1.25971 3.11529,2.6601 l 2.66111,4.4805 c 0.69921,1.15481 1.36431,1.47021 2.16992,1.47021 h 0.91015 v 2.87009 h -2.27539 c -2.0654,0 -3.01068,-0.2099 -4.44528,-2.5903 l -3.36041,-5.7056 c -1.0156,-1.75 -1.54001,-2.13519 -2.69531,-2.13519 h -2.10059 l -0.0703,7.561 h 2.836 v 2.87009 h -9.20609 v -2.87009 z m 9.4863,-10.64111 c 2.76471,0 4.69052,-1.47019 4.69052,-4.09571 0,-2.5552 -1.57523,-4.02539 -4.41122,-4.02539 h -3.2548 l -0.0704,8.1211 z"
   id="path859" />
				<path
   style="fill:#ffffff"
   d="m 518.15839,432.74411 h 2.45019 l 0.13959,-18.76221 h -2.8349 v -2.87011 h 17.22174 l 0.13959,6.4404 h -3.25489 l -0.2099,-3.57029 h -7.10553 l -0.0703,7.56101 h 7.00104 v 3.08008 h -7.00104 l -0.0703,8.12112 h 7.45605 l 0.28028,-3.99072 h 3.29004 l -0.28022,6.86081 h -17.15142 z"
   id="path861" />
				<path
   style="fill:#ffffff"
   d="m 555.78436,418.2876 v -3.92041 c -0.91015,-0.24518 -2.31054,-0.59528 -4.1651,-0.59528 -5.8457,0 -8.8916,3.57028 -8.8916,9.6958 0,5.56598 3.36041,9.48639 8.36633,9.48639 1.67957,0 3.46479,-0.17529 4.375,-0.3501 l 0.14057,-4.4107 h 3.5 l -0.13965,6.68609 c -1.5752,0.52491 -4.72565,1.1547 -7.6308,1.1547 -8.78625,0 -12.95123,-5.46039 -12.95123,-12.42618 0,-7.63092 5.11029,-12.91602 13.26562,-12.91602 3.08106,0 5.98627,0.66501 7.63086,1.33002 v 6.26569 z"
   id="path863" />
				<path
   style="fill:#ffffff"
   d="m 578.3938,432.74411 h 2.45019 l 0.0703,-7.87601 h -11.37604 l -0.0702,7.87601 h 2.625 v 2.87009 h -9.03034 v -2.87009 h 2.4502 l 0.13959,-18.76221 h -2.58979 v -2.87011 h 9.03034 v 2.87011 h -2.48542 l -0.0693,7.8057 h 11.37604 l 0.0702,-7.8057 h -2.59076 v -2.87011 h 9.03119 v 2.87011 h -2.48529 L 584.8,432.74411 h 2.625 v 2.87009 h -9.03119 z"
   id="path865" />
				<path
   style="fill:#ffffff"
   d="m 596.70819,432.74411 h 2.52051 l 0.13971,-18.76221 h -5.70612 l -0.13958,3.57029 h -3.5 l 0.13958,-6.4404 h 22.22748 l 0.13971,6.4404 h -3.5 l -0.14063,-3.57029 h -5.59954 l -0.14075,18.76221 h 2.83502 v 2.87009 h -9.27539 z"
   id="path867" />
			</g>
			<g
   id="g883">
				<path
   style="fill:#e3c029"
   d="m 409.0239,179.77879 c 23.4053,0 41.04498,1.14551 52.77838,2.28321 l 2.66311,-21.31839 c -11.4707,-1.01461 -33.05279,-3.54491 -56.5166,-3.54491 -23.6817,0 -45.9219,2.5625 -57.6055,3.5723 l 2.7793,21.60839 c 11.62689,-1.23239 30.31442,-2.6006 55.90131,-2.6006 z m 37.32128,-9.56639 c 0.2139,-1.751 2.3487,-2.92579 5.3086,-2.92579 0.46002,0 0.93262,0.0293 1.4014,0.084 1.56451,0.19529 3.00781,0.68649 4.07232,1.39259 1.25879,0.83881 1.8808,1.8974 1.74509,2.9853 -0.2139,1.7491 -2.3428,2.92679 -5.30081,2.92679 -0.46189,0 -0.9346,-0.0293 -1.4043,-0.0869 -3.5723,-0.4375 -6.07318,-2.31839 -5.8223,-4.37599 z m -16.19329,-5.30079 7.16989,3.92968 -7.36518,3.55082 -7.17392,-3.93071 z M 407.49658,164.227 c 3.87012,0 6.78812,1.6661 6.78812,3.876 0,2.21 -2.918,3.877 -6.78812,3.877 -3.87109,0 -6.78909,-1.667 -6.78909,-3.877 0,-2.2099 2.918,-3.876 6.78909,-3.876 z m -22.65429,0.68461 7.36721,3.54689 -7.1709,3.93361 -7.36822,-3.55082 z m -26.97751,3.85159 c 1.06442,-0.7061 2.51361,-1.1973 4.07812,-1.39259 0.4668,-0.0547 0.93549,-0.084 1.39749,-0.084 2.9589,0 5.09272,1.17479 5.31049,2.92289 0.25201,2.0605 -2.25388,3.94139 -5.82318,4.37889 -0.47269,0.0576 -0.93952,0.0869 -1.4014,0.0869 -2.95901,0 -5.0928,-1.17579 -5.30661,-2.92679 -0.1329,-1.0879 0.48532,-2.1465 1.74509,-2.9853 z"
   id="path871" />
				<g
   id="g879">
					<g
   id="g877">
						<path
   style="fill:#e3c029"
   d="m 413.53369,135.0531 c 0,-3.1299 -2.539,-5.6709 -5.6709,-5.6709 -3.13278,0 -5.6709,2.541 -5.6709,5.6709 0,3.1358 2.53812,5.67101 5.6709,5.67101 3.1319,0 5.6709,-2.53521 5.6709,-5.67101 z m -60.50879,3.838 c 0,-3.1319 -2.53811,-5.6729 -5.67282,-5.6729 -3.13379,0 -5.6709,2.541 -5.6709,5.6729 0,3.1299 2.53711,5.669 5.6709,5.669 3.13471,0 5.67282,-2.5391 5.67282,-5.669 z m 48.3252,3.1299 c -3.12692,0 -5.6709,2.541 -5.6709,5.67089 0,3.13282 2.54398,5.6709 5.6709,5.6709 3.13278,0 5.6738,-2.53808 5.6738,-5.6709 0,-3.12989 -2.54102,-5.67089 -5.6738,-5.67089 z m -13.0185,0.96189 c -3.13281,0 -5.67089,2.53811 -5.67089,5.6698 0,3.13282 2.53808,5.66901 5.67089,5.66901 3.13279,0 5.6699,-2.53619 5.6699,-5.66901 0,-3.13169 -2.53711,-5.6698 -5.6699,-5.6698 z m -13.0205,0.95801 c -3.12891,0 -5.67002,2.5381 -5.67002,5.6698 0,3.131 2.54111,5.672 5.67002,5.672 3.13668,0 5.6748,-2.541 5.6748,-5.672 0,-3.1317 -2.53812,-5.6698 -5.6748,-5.6698 z m -13.01572,0.9579 c -3.13278,0 -5.6738,2.541 -5.6738,5.6709 0,3.13001 2.54102,5.6709 5.6738,5.6709 3.13281,0 5.668,-2.54089 5.668,-5.6709 0,-3.1299 -2.53519,-5.6709 -5.668,-5.6709 z m -13.02539,0.958 c -3.13471,0 -5.66699,2.5392 -5.66699,5.67089 0,3.13001 2.53228,5.6709 5.66699,5.6709 3.1329,0 5.6719,-2.54089 5.6719,-5.6709 0,-3.13169 -2.539,-5.67089 -5.6719,-5.67089 z m 65.1026,-3.8358 c -3.13281,0 -5.6709,2.541 -5.6709,5.67089 0,2.45691 1.56049,4.5468 3.74609,5.3369 l 5.581,-9.66899 c -0.98828,-0.83301 -2.26358,-1.3388 -3.65619,-1.3388 z"
   id="path873" />
						<path
   style="fill:#d2ad15"
   d="m 468.37057,133.2182 c -3.13177,0 -5.67089,2.541 -5.67089,5.6729 0,3.1299 2.53912,5.669 5.67089,5.669 3.13282,0 5.67191,-2.5391 5.67191,-5.669 0,-3.1319 -2.53909,-5.6729 -5.67191,-5.6729 z m -1.91598,12.6386 c -3.13181,0 -5.6709,2.5392 -5.6709,5.67089 0,3.13001 2.53909,5.6709 5.6709,5.6709 3.1348,0 5.668,-2.54089 5.668,-5.6709 0,-3.13169 -2.5332,-5.67089 -5.668,-5.67089 z m -13.0195,-0.958 c -3.13281,0 -5.66989,2.541 -5.66989,5.6709 0,3.13001 2.53708,5.6709 5.66989,5.6709 3.12991,0 5.66891,-2.54089 5.66891,-5.6709 0,-3.1299 -2.539,-5.6709 -5.66891,-5.6709 z m -13.02441,-0.9579 c -3.13279,0 -5.6709,2.5381 -5.6709,5.6698 0,3.131 2.53811,5.672 5.6709,5.672 3.13571,0 5.67282,-2.541 5.67282,-5.672 0,-3.1317 -2.53711,-5.6698 -5.67282,-5.6698 z m -13.0196,-0.95801 c -3.12979,0 -5.6709,2.53811 -5.6709,5.6698 0,3.13282 2.54111,5.66901 5.6709,5.66901 3.13581,0 5.67392,-2.53619 5.67392,-5.66901 0,-3.13169 -2.53811,-5.6698 -5.67392,-5.6698 z m -9.3623,0.37691 -5.581,9.66899 c 0.59961,0.21772 1.249,0.334 1.92481,0.334 3.13281,0 5.67279,-2.53808 5.67279,-5.6709 0,-1.73728 -0.78409,-3.29199 -2.0166,-4.33209 z"
   id="path875" />
					</g>
				</g>
				<path
   style="fill:#d2ad15"
   d="m 407.49658,171.98 c -2.29388,0 -4.2539,-0.5869 -5.4707,-1.5235 l -5.6055,9.4366 c 3.99911,-0.0733 8.1983,-0.11431 12.60352,-0.11431 23.4053,0 41.04498,1.14551 52.77838,2.28321 l 2.66311,-21.31839 c -11.1553,-0.98531 -31.86722,-3.40621 -54.57129,-3.53711 l -4.25201,7.15629 c 0.58691,-0.0869 1.20511,-0.13579 1.85449,-0.13579 3.87012,0 6.78812,1.6661 6.78812,3.876 0,2.21 -2.918,3.877 -6.78812,3.877 z m 38.8486,-1.7676 c 0.2139,-1.751 2.3487,-2.92579 5.3086,-2.92579 0.46002,0 0.93262,0.0293 1.4014,0.084 1.56451,0.19529 3.00781,0.68649 4.07232,1.39259 1.25879,0.83881 1.8808,1.8974 1.74509,2.9853 -0.2139,1.7491 -2.3428,2.92679 -5.30081,2.92679 -0.46189,0 -0.9346,-0.0293 -1.4043,-0.0869 -3.5723,-0.4375 -6.07318,-2.31839 -5.8223,-4.37599 z m -16.19329,-5.30079 7.16989,3.92968 -7.36518,3.55082 -7.17392,-3.93071 z"
   id="path881" />
			</g>
			<path
   style="fill:#155429"
   d="m 461.24799,390.6821 v 1.22171 h 80.5968 v -9.4473 c 0,0 -2.95618,-0.4638 -8.19843,-1.14551 z"
   id="path885" />
			<path
   style="fill:#155429"
   d="m 635.70697,443.71729 c 3.58191,-0.55329 5.22491,-0.8335 5.22491,-0.8335 v -48.7489 c 0,0 -5.75817,1.31302 -19.20007,2.63571 9.12818,11.1192 12.77228,29.22751 13.97516,46.94669 z"
   id="path887" />
			<g
   id="g895">
				<g
   id="g893">
					<path
   style="fill:#ffffff"
   d="m 387.8327,409.19241 h 2.12079 l 0.121,-16.23761 h -2.45379 v -2.48431 h 14.90469 l 0.12149,5.57452 h -2.81769 l -0.18161,-3.09021 h -6.1499 l -0.0605,6.5434 h 6.059 v 2.66629 h -6.059 l -0.0605,7.02792 h 6.45251 l 0.2424,-3.45321 h 2.84781 l -0.24252,5.9375 H 387.8327 Z"
   id="path889" />
					<path
   style="fill:#ffffff"
   d="m 406.46088,409.19241 h 2.0599 l 0.121,-16.23761 h -2.66577 v -2.48431 h 5.57398 l 9.8157,12.81491 c 0.6359,0.8479 1.54489,2.2413 2.1203,3.18069 h 0.0605 l -0.121,-13.51129 h -2.3628 v -2.48431 h 7.39191 v 2.48431 h -2.0603 l -0.12101,18.7219 h -2.7568 L 412.9134,397.92291 c -0.6059,-0.7875 -1.1814,-1.63592 -1.4844,-2.24182 l -0.0605,0.0609 0.121,13.45041 h 2.3328 v 2.48429 h -7.36142 v -2.48429 z"
   id="path891" />
				</g>
			</g>
			
				<linearGradient
   id="SVGID_1_"
   gradientUnits="userSpaceOnUse"
   x1="582.36969"
   y1="348.48499"
   x2="582.37262"
   y2="348.48499"
   gradientTransform="matrix(-1,0,0,1,1142.9727,0)">
				<stop
   offset="0"
   style="stop-color:#B98F16"
   id="stop897" />
				<stop
   offset="1"
   style="stop-color:#D2AD15"
   id="stop899" />
			</linearGradient>
			<polygon
   style="fill:url(#SVGID_1_)"
   points="560.60303,348.49429 560.6001,348.49429 560.6001,348.47571 "
   id="polygon902" />
			<path
   style="fill:#d2ad15"
   d="m 635.23578,248.3634 c 0,-11.00779 -14.69531,-7.5303 -22.75391,-7.5303 -8.0625,0 -7.4873,-10.4111 -7.4873,-10.4111 2.72564,0 7.87213,0 15.34283,0 12.2461,0 20.07709,7.5498 14.89838,17.9414 z"
   id="path904" />
			<path
   style="fill:#efd544"
   d="m 587.62451,225.838 c 3.57996,-3.581 7.29389,-5.5537 12.57605,-5.5537 11.72473,0 28.68274,-0.7471 31.04981,-6.9043 2.05774,2.15819 1.86718,6.5156 -3.1435,11.5235 13.20124,0 15.52539,3.0029 16.85742,5.8095 3.44532,7.2559 -2.53222,17.6504 -9.72851,17.6504 5.17871,-10.3916 -2.65228,-17.9414 -14.89838,-17.9414 -7.4707,0 -12.61719,0 -15.34283,0 h -2.2959 -2.49811 c -1.79675,0 -3.76849,0.9424 -5.4082,2.582 -3.4765,3.4776 -3.4765,9.13769 0,12.61529 l 24.3067,24.30561 c 1.5351,1.53421 2.64453,3.27639 3.54596,5.13089 l -39.98541,-30.6641 c -1.76172,-6.39549 -0.0527,-13.53409 4.9649,-18.55369 z"
   id="path906" />
			<path
   style="fill:#b98f16"
   d="m 558.97107,202.0363 c -0.19531,-0.7305 -0.32031,-1.41701 -0.38757,-2.0684 3.5263,-4.1377 9.414,-5.7656 17.36706,-2.40821 10.00885,4.22171 19.12995,-3.09179 19.12995,-3.09179 -6.88385,13.1875 -16.44141,8.90921 -24.7295,6.30571 -4.52545,-1.41991 -8.77343,-0.0244 -11.37994,1.26269 z"
   id="path908" />
			<path
   style="fill:#b98f16"
   d="m 516.84216,251.63589 c -8.50677,-4.86279 -15.34567,-8.40769 -15.36029,-8.41409 l -0.002,-0.001 3.2373,14.003 c 0,0 -9.6025,15.62591 -14.74701,24.10592 0.11029,0.0547 0.22651,0.0987 0.33591,0.1568 0,0 26.58399,-29.82181 26.58301,-29.82231 v -0.001 c -0.0156,-0.009 -0.0312,-0.018 -0.0469,-0.0268 z"
   id="path910" />
			<path
   style="fill:#d2ad15"
   d="m 562.84027,229.5235 c 0,-10.25301 -6.91998,-14.45709 -10.01471,-15.828 -4.58777,-0.1875 -9.31927,0.2411 -13.37787,1.8974 1.32331,12.12249 18.73828,28.32611 29.20209,31.90519 0.084,0.0254 0.16211,0.0528 0.24622,0.0782 -4.99714,-3.85449 3.31439,-18.05279 -6.05573,-18.05279 z"
   id="path912" />
			<path
   style="fill:#e3c029"
   d="m 527.46039,257.92401 v 0 c -3.57129,-2.2017 -7.19922,-4.33401 -10.57031,-6.26082 l -9.8e-4,0.001 -26.58301,29.82231 c -1.47461,-0.78622 -3.125,-1.27841 -4.9111,-1.27841 v 10.4512 h 0.0166 c -4.4844,0.98831 -7.47949,4.70221 -7.47949,10.43259 h 7.48437 l -0.005,9.32233 c 0.9902,1.10159 2.5488,1.80468 4.13379,1.85058 l 37.95901,-54.31351 c -0.0166,-0.008 -0.0538,-0.0142 -0.044,-0.0273 z"
   id="path914" />
			<path
   style="fill:#d2ad15"
   d="m 566.56,257.5636 c -10.35742,6.49759 -31.00293,5.57031 -31.02344,5.5567 -0.0108,-0.007 -0.0215,-0.0142 -0.0322,-0.0215 -0.0245,0.009 5.83002,3.58932 11.88367,9.4248 l 40.65924,6.4736 c 0,0 -13.12604,-13.09329 -21.4873,-21.43359 z"
   id="path916" />
			<path
   style="fill:#d2ad15"
   d="m 610.96136,330.7648 c -4.70117,0 -18.90429,-1.875 -18.90429,-12.2988 0,-6.1387 0,-21.5928 0,-21.5928 l -10.84381,17.68359 -0.1416,17.9101 c 17.5147,20.09381 13.12701,43.00491 5.13684,52.2344 v 6.9336 c 4.96966,-0.0957 9.85351,-0.21189 14.53509,-0.38278 l -1.22168,-5.21 6.48828,-11.2568 c 0,0 -2.83398,-36.23731 4.95117,-44.02051 z"
   id="path918" />
			<path
   style="fill:#efd544"
   d="m 527.50439,257.95129 -37.95901,54.31351 c 0.0517,0 0.10062,0.009 0.16009,0.009 0.63581,0 13.42682,-9.50388 13.42682,-9.50388 l 32.40427,-39.64941 c -2.54199,-1.72171 -5.26953,-3.46539 -8.03217,-5.16901 z"
   id="path920" />
			<path
   style="fill:#f6e477"
   d="m 539.44769,215.5929 c -14.03119,7.25289 -20.4599,28.2158 -37.96582,27.6289 0.0244,0.0108 19.89551,10.31059 34.05469,19.8985 0.0273,0.0185 36.80664,1.66599 36.80664,-14.8936 -9.33594,0 -31.39941,-18.93069 -32.89551,-32.6338 z"
   id="path922" />
			<path
   style="fill:#e3c029"
   d="m 504.14301,230.7433 c 3.04098,-7.86619 4.15628,-20.6611 7.48828,-33.3643 l -15.91599,-10.121 -3.82129,-6.626 H 474.021 l -3.32331,5.75679 c 6.9014,0.66501 11.31739,1.168 11.4531,1.18071 l 3.12109,0.3945 v 24.958 z"
   id="path924" />
			<path
   style="fill:#efd544"
   d="m 525.70941,169.9464 v -10.7138 l 11.01862,4.8505 c -0.0977,-0.56731 -0.33203,-3.56931 4.85638,-6.4521 -0.22565,3.2305 4.48145,5.6055 9.91699,7.2666 -5.63672,13.1006 -13.96972,33.1533 -12.05371,50.6953 -14.02832,7.25289 -20.45898,28.2158 -37.96582,27.6289 0,0 -4.47168,-2.123 -5.96679,-4.7256 16.60253,0 7.60641,-45.959 30.19433,-68.5498 z"
   id="path926" />
			<path
   style="fill:#efd544"
   d="m 571.26721,343.70309 c 5.40198,5.4191 8.64227,11.698 8.64227,17.76181 0,13.68061 -9.26269,18.65729 -9.26269,18.65729 -10.98822,-3.5216 -14.06921,7.63581 -14.83191,11.68842 3.8847,0.006 7.92969,0.008 12.1377,0.008 6.01458,0 12.55658,-0.0645 18.25579,-0.168 v -6.9491 c 7.9903,-9.22949 12.37799,-32.14068 -5.13671,-52.23449 z"
   id="path928" />
			<path
   style="fill:#efd544"
   d="m 560.53851,324.60559 c -0.003,-2.21478 -0.005,-5.95648 -0.008,-8.08688 l -0.002,4.9e-4 c 8.5e-4,0.5112 8.5e-4,1.02291 0.002,1.5429 l -34.05859,7.92731 -22.54782,44.3999 c 6.76458,0.55078 12.83688,1.13959 18.10147,1.707 l -2.16986,-5.74701 27.48828,-39.21981 z"
   id="path930" />
			<path
   style="fill:#e3c029"
   d="m 510.57269,329.69061 c -2.53711,22.17478 -17.08691,29.206 -17.08691,29.206 0,0 -2.77728,-0.6894 -5.65531,-0.6894 -6.39837,0 -9.52829,10.581 -9.52829,10.581 3.37702,0.1524 6.9141,0.3555 10.45411,0.57519 3.00491,0.16019 5.94241,0.34281 8.75201,0.5459 2.207,0.16309 4.32709,0.3291 6.40619,0.5029 l 22.56061,-44.42279 z"
   id="path932" />
			<path
   style="fill:#d2ad15"
   d="m 560.51611,304.23059 -14.6416,-10.7344 -40.83603,33.80761 c 0,0 2.1221,2.95899 5.53421,2.38681 L 560.5307,318.0621 c -0.006,-5.2792 -0.0107,-10.13961 -0.0146,-13.83151 z"
   id="path934" />
			<path
   style="fill:#efd544"
   d="m 535.53558,263.12119 -11.64941,14.25442 36.62994,26.85498 c -0.005,-4.23828 -0.008,-6.93649 -0.008,-6.93649 0,-2.31061 -0.39069,-4.57419 -1.07233,-6.76471 -2.1289,-7.0625 -7.14746,-13.28119 -12.04791,-18.0058 -5.8623,-5.65039 -11.52045,-9.17679 -11.8515,-9.40289 z"
   id="path936" />
			<path
   style="fill:#e3c029"
   d="m 578.26398,181.7959 -9.43537,-7.0302 -1.59961,-6.7139 c 0,0 -8.50982,-0.94729 -15.72772,-3.15429 -5.6366,13.10058 -13.9696,33.15339 -12.05359,50.69539 12.97663,-5.2911 32.81537,1.92179 32.81537,1.92179 l -3.11706,-8.39059 4.55456,-5.27251 c 0,0 -13.51654,1.57521 -13.52148,1.56742 -3.9903,-8.97461 -0.65131,-13.39441 8.0429,-13.39441 3.62708,0 6.4405,1.7586 6.4405,1.7586 l 1.88281,-6.1239 -1.62793,-3.0343 2.29883,0.2121 z M 557.479,175.7207 c -2.46502,0.084 -4.52362,-1.51271 -4.58789,-3.5644 -0.008,-0.2304 0.0184,-0.458 0.0576,-0.6807 3.03711,0.1895 6.18072,0.5996 8.80261,1.0147 -0.30359,1.7588 -2.07312,3.15431 -4.27228,3.2304 z"
   id="path938" />
			
				<linearGradient
   id="SVGID_2_"
   gradientUnits="userSpaceOnUse"
   x1="1606.4854"
   y1="348.46271"
   x2="1606.4882"
   y2="348.46271"
   gradientTransform="translate(-1351.5137)">
				<stop
   offset="0"
   style="stop-color:#B98F16"
   id="stop940" />
				<stop
   offset="1"
   style="stop-color:#D2AD15"
   id="stop942" />
			</linearGradient>
			<polygon
   style="fill:url(#SVGID_2_)"
   points="254.97159,348.47198 254.97449,348.47198 254.97449,348.4534 "
   id="polygon945" />
			<g
   id="g951">
				<path
   style="fill:#d2ad15"
   d="m 180.3387,248.34109 c 0,-11.00779 14.69539,-7.53028 22.754,-7.53028 8.0625,0 7.4873,-10.41111 7.4873,-10.41111 -2.7256,0 -7.8721,0 -15.3428,0 -12.24611,0 -20.0772,7.54979 -14.8985,17.94139 z"
   id="path947" />
				<path
   style="fill:#e3c029"
   d="m 227.95009,225.8157 c -3.58009,-3.581 -7.29399,-5.55371 -12.57619,-5.55371 -11.72461,0 -28.6826,-0.7471 -31.0498,-6.90429 -2.05761,2.1582 -1.86721,6.51561 3.1436,11.52349 -13.20121,0 -15.52541,3.0029 -16.8575,5.80951 -3.44521,7.25589 2.5323,17.65039 9.7285,17.65039 -5.1787,-10.3916 2.65239,-17.94139 14.8985,-17.94139 7.4707,0 12.6172,0 15.3428,0 h 2.2959 2.498 c 1.79689,0 3.7686,0.9424 5.40819,2.582 3.47661,3.4776 3.47661,9.1377 0,12.6153 l -24.3066,24.30559 c -1.5352,1.53421 -2.64459,3.2764 -3.54589,5.13092 l 39.9853,-30.66411 c 1.76169,-6.39549 0.0528,-13.5341 -4.96481,-18.5537 z"
   id="path949" />
			</g>
			<path
   style="fill:#b98f16"
   d="m 256.60339,202.01401 c 0.19532,-0.73052 0.32032,-1.41701 0.3877,-2.06841 -3.5264,-4.13769 -9.41409,-5.76561 -17.36719,-2.4082 -10.0088,4.22169 -19.1299,-3.0918 -19.1299,-3.0918 6.88379,13.1875 16.44139,8.9092 24.7295,6.3057 4.52539,-1.41989 8.77349,-0.0244 11.37989,1.26271 z"
   id="path953" />
			<path
   style="fill:#e3c029"
   d="m 298.7323,251.6136 c 8.50681,-4.86281 15.3457,-8.4077 15.36038,-8.41411 l 0.002,-9.9e-4 -3.2373,14.00301 c 0,0 9.60248,15.62588 14.7471,24.10589 -0.11041,0.0547 -0.22662,0.0987 -0.336,0.1568 l -26.58301,-29.82229 v -0.002 c 0.0157,-0.009 0.0313,-0.018 0.0469,-0.0268 z"
   id="path955" />
			<path
   style="fill:#d2ad15"
   d="m 262.74899,213.6732 c -3.09478,1.371 -10.0146,5.57511 -10.0146,15.82801 -9.3703,0 -1.0587,14.19819 -6.0558,18.05279 0.084,-0.0255 0.1622,-0.0528 0.24611,-0.0781 10.464,-3.57911 27.87889,-19.78281 29.2021,-31.90531 -4.05859,-1.65629 -8.78992,-2.0849 -13.37781,-1.8974 z"
   id="path957" />
			<path
   style="fill:#efd544"
   d="m 288.11411,257.9017 v 0 c 3.57128,-2.2017 7.19927,-4.334 10.57037,-6.2608 0,0 9.1e-4,5e-4 9.1e-4,0.001 l 26.58301,29.82229 c 1.47461,-0.78619 3.125,-1.27841 4.9112,-1.27841 v 10.4512 h -0.0166 c 4.48429,0.98832 7.4795,4.70221 7.4795,10.43262 h -7.48441 l 0.005,9.3223 c -0.99029,1.10159 -2.54889,1.80468 -4.13378,1.85058 l -37.95902,-54.3135 c 0.0166,-0.008 0.0537,-0.0142 0.0439,-0.0273 z"
   id="path959" />
			<path
   style="fill:#e3c029"
   d="m 249.0145,257.54129 c 10.35751,6.49762 31.00299,5.57031 31.02349,5.5567 0.0107,-0.007 0.0215,-0.0142 0.0322,-0.0215 0.0244,0.009 -5.83011,3.58929 -11.88379,9.4248 l -40.65921,6.4736 c 0,0 13.12601,-13.09332 21.48731,-21.43362 z"
   id="path961" />
			<path
   style="fill:#f6e477"
   d="m 204.61319,330.74249 c 4.70111,0 18.90431,-1.875 18.90431,-12.29879 0,-6.13871 0,-21.59281 0,-21.59281 l 10.84369,17.68359 0.1416,17.91013 c -17.5146,20.09378 -13.12689,43.00488 -5.1367,52.23438 v 6.93362 c -4.9697,-0.0957 -9.8535,-0.21191 -14.53519,-0.38281 l 1.2217,-5.20999 -6.4883,-11.25681 c 0,0 2.834,-36.2373 -4.95111,-44.02051 z"
   id="path963" />
			<path
   style="fill:#e3c029"
   d="m 229.36609,391.6282 c 5.6992,0.10349 12.24121,0.168 18.2559,0.168 4.20801,0 8.2529,-0.002 12.13759,-0.008 -0.76257,-4.0527 -3.84369,-15.20999 -14.83198,-11.68848 0,0 -9.26271,-4.97662 -9.26271,-18.65722 0,-6.08109 3.2084,-12.3371 8.6381,-17.76679 l -9.8002,-11.23129 c -17.5146,20.09378 -13.12689,43.00488 -5.1367,52.23438 z"
   id="path965" />
			<path
   style="fill:#d2ad15"
   d="m 288.07019,257.92899 37.95902,54.3135 c -0.0518,0 -0.10062,0.009 -0.16022,0.009 -0.63568,0 -13.4267,-9.5039 -13.4267,-9.5039 l -32.4043,-39.64942 c 2.542,-1.72168 5.26951,-3.46539 8.0322,-5.169 z"
   id="path967" />
			<path
   style="fill:#f6e477"
   d="m 243.23129,248.20441 c 0,16.5596 36.7793,14.91208 36.8067,14.89358 14.15909,-9.58789 34.03022,-19.88769 34.05469,-19.8985 -17.50589,0.58692 -23.9346,-20.37599 -37.96588,-27.62889 -1.49609,13.7031 -23.55951,32.63381 -32.89551,32.63381 z"
   id="path969" />
			<path
   style="fill:#d2ad15"
   d="m 311.43149,230.72099 c -3.04099,-7.86619 -4.15619,-20.66108 -7.48828,-33.36429 l 15.91607,-10.121 3.8212,-6.626 h 17.87311 l 3.32321,5.7568 c -6.90131,0.66499 -11.31732,1.168 -11.45309,1.1807 l -3.12113,0.3945 v 24.958 z"
   id="path971" />
			<path
   style="fill:#e3c029"
   d="m 289.86508,169.9241 v -10.7138 l -11.01849,4.85051 c 0.0976,-0.56731 0.332,-3.56931 -4.85651,-6.45211 0.22562,3.2305 -4.48138,5.6055 -9.91699,7.26661 5.63672,13.1006 13.9697,33.15328 12.05371,50.69529 14.02838,7.2529 20.45898,28.21581 37.96588,27.62889 0,0 4.47162,-2.12298 5.9668,-4.72558 -16.6026,0 -7.60648,-45.95902 -30.1944,-68.54981 z"
   id="path973" />
			<path
   style="fill:#efd544"
   d="m 268.19031,272.49741 c -0.001,10e-4 -0.003,0.002 -0.004,0.004 v 0 c 0.001,-0.002 0.003,-0.002 0.004,-0.004 z m -71.62302,24.35348 c 3.5957,3.59961 8.3828,5.58099 13.47461,5.58099 5.0898,0 9.8779,-1.98138 13.4756,-5.58099 l 10.84369,17.68359 0.1416,17.91013 20.4961,23.48929 c 0.0107,-6.54199 0.0674,-58.66211 0.0674,-58.66211 0,-2.31058 0.39059,-4.57419 1.07228,-6.76468 2.12891,-7.0625 7.14743,-13.28122 12.04782,-18.0058 l -40.65921,6.4736 -8.33099,8.1904 c 0,0 -8.9541,9.02838 -15.45711,2.5196 -3.48039,-3.4805 -3.48039,-9.1377 0,-12.6153 L 228.0419,252.7659 c 2.41399,-2.4131 4.02829,-5.3203 4.873,-8.3965 l -39.9853,30.66411 c -3.45321,7.10739 -2.2569,15.9219 3.63769,21.81738 z"
   id="path975" />
			<path
   style="fill:#f6e477"
   d="m 255.036,324.58331 c 0.003,-2.21481 0.005,-5.95651 0.008,-8.08691 l 0.002,4.9e-4 c -9.9e-4,0.5112 -9.9e-4,1.02292 -0.002,1.5429 l 34.0586,7.92731 22.54791,44.3999 c -6.76471,0.55079 -12.83691,1.13959 -18.10159,1.707 l 2.16989,-5.747 -27.48831,-39.21979 z"
   id="path977" />
			<path
   style="fill:#d2ad15"
   d="m 305.0018,329.6683 c 2.53708,22.17481 17.08688,29.206 17.08688,29.206 0,0 2.77741,-0.68939 5.65531,-0.68939 6.3985,0 9.52829,10.58099 9.52829,10.58099 -3.37689,0.1524 -6.91397,0.3555 -10.45407,0.5752 -3.00483,0.16021 -5.94233,0.3428 -8.75193,0.54589 -2.207,0.16312 -4.32717,0.32911 -6.40628,0.5029 L 289.09949,325.9671 Z"
   id="path979" />
			<path
   style="fill:#e3c029"
   d="m 255.05849,304.20831 14.64161,-10.7344 40.83591,33.80758 c 0,0 -2.12213,2.95902 -5.53421,2.38681 l -49.95801,-11.62851 c 0.006,-5.2792 0.0108,-10.13958 0.0147,-13.83148 z"
   id="path981" />
			<path
   style="fill:#b98f16"
   d="m 280.03888,263.09891 11.6495,14.25439 -36.62989,26.85501 c 0.005,-4.23831 0.008,-6.93652 0.008,-6.93652 0,-2.31058 0.39059,-4.57419 1.07228,-6.76468 2.12891,-7.0625 7.14743,-13.28122 12.04782,-18.0058 5.86231,-5.65042 11.52048,-9.17682 11.85159,-9.40292 z"
   id="path983" />
			<path
   style="fill:#efd544"
   d="m 264.07309,164.87531 c -7.2178,2.20689 -15.72749,3.15429 -15.72749,3.15429 l -1.5996,6.71379 -9.43561,7.03022 1.0479,3.04119 2.29891,-0.21209 -1.62801,3.03419 1.88281,6.1241 c 0,0 2.81349,-1.7587 6.44049,-1.7587 8.69442,0 12.0331,4.4198 8.04291,13.3945 -0.005,0.008 -13.52141,-1.56739 -13.52141,-1.56739 l 4.5546,5.2724 -3.1171,8.39068 c 0,0 19.83881,-7.21289 32.81531,-1.92189 1.91599,-17.5421 -6.41699,-37.59469 -12.05371,-50.69529 z m -5.97751,10.82319 c -2.19919,-0.0762 -3.96878,-1.47169 -4.27249,-3.2305 2.62219,-0.4151 5.76559,-0.82519 8.80292,-1.01471 0.039,0.22281 0.0653,0.45021 0.0575,0.6808 -0.0645,2.05172 -2.12311,3.6483 -4.58792,3.56441 z"
   id="path985" />
			<path
   style="fill:#d2ad15"
   d="m 477.9292,321.6792 c 0,39.35641 -70.14551,53.2959 -70.14551,53.2959 0,0 -70.1416,-13.93949 -70.1416,-53.2959 0,-35.3682 0,-127.0127 0,-127.0127 0,0 23.7363,-4.5039 70.1416,-4.5039 46.4111,0 70.14551,4.5039 70.14551,4.5039 0,0 0,94.42679 0,127.0127 z"
   id="path987" />
			<path
   style="fill:#b98f16"
   d="m 407.78369,374.9751 c 0,0 70.14551,-13.93949 70.14551,-53.2959 0,-32.58591 0,-127.0127 0,-127.0127 0,0 -23.73441,-4.5039 -70.14551,-4.5039 -10.93161,0 -20.60641,0.25 -29.00781,0.63279 63.32913,2.52932 88.63962,11.09182 88.63962,11.09182 0,0 0.0567,88.59668 0.0567,121.0625 0,32.46679 -59.68851,52.02539 -59.68851,52.02539 z"
   id="path989" />
			<path
   style="fill:#4b4b4b"
   d="m 421.94589,267.06311 -5.36899,-0.668 -1.6607,2.2157 -12.54102,-7.9942 c 1.26191,6.31149 4.7016,18.33398 13.5257,28.56259 5.87881,4.25259 12.022,8.70569 16.90051,12.23871 -0.38531,-20.64682 -7.37662,-32.01511 -9.19479,-36.5705 z"
   id="path991" />
			<g
   id="g995">
				<path
   style="fill:#ffffff"
   d="m 396.27719,275.0076 c -6.57168,-4.69141 -4.4205,-13.97101 -0.0973,-18.33679 l 18.7363,11.94 1.6607,-2.2157 5.36899,0.668 1.66071,-2.2157 13.85489,2.38358 c -2.58661,-4.13858 -6.89402,-10.8035 -13.4401,-15.26448 l 1.6608,-2.21572 c -3.34619,-1.5764 -10.995,-2.82618 -19.8378,-2.82618 -6.62179,0 -13.48639,0 -13.48639,0 l 9.53079,-27.1687 c 2.5344,-7.31312 -1.98031,-13.16301 -6.89511,-13.70591 -7.42468,-0.817 -10.49579,7.1711 -10.49579,7.1711 l 8.14411,8.2948 c 0.1828,0.0417 -10.50171,24.96201 -10.50171,24.96201 -1.09,2.60969 -1.80539,5.99218 -1.82889,9.6462 -0.0449,6.97739 3.14319,14.10169 9.64169,20.41419 5.51239,5.35449 29.3668,24.06461 29.3668,24.06461 l 1.9208,-2.55091 11.5607,3.36591 c 0,0 -34.68838,-25.10291 -36.5242,-26.41031 z"
   id="path993" />
			</g>
			<path
   style="fill:#636363"
   d="m 402.37518,260.61661 -6.19528,-3.9458 c -4.32321,4.36578 -6.47439,13.64538 0.0973,18.33679 1.99991,1.4234 10.4801,7.5553 19.62369,14.1716 -8.8241,-10.22861 -12.26379,-22.2511 -13.5257,-28.56259 z"
   id="path997" />
			<path
   d="m 437.46149,267.2309 -13.85489,-2.38349 c 1.81817,4.55539 8.80948,15.92368 9.19479,36.5705 5.5318,4.00848 9.43341,6.8316 9.43341,6.8316 l 2.7341,-3.64392 7.16809,4.96021 c -0.39151,-3.28681 -0.9479,-6.38239 -1.62741,-9.3133 -3.10699,-14.57559 -8.24869,-25.5437 -13.04809,-33.0216 z"
   id="path999" />
			<path
   style="fill:#4b4b4b"
   d="m 425.32248,352.42889 c -0.30658,-0.7724 -0.87949,-1.50998 -1.9762,-1.50998 h -4.02639 v -19.0505 l -3.29722,1.4989 v 17.49408 h -6.11657 c -0.7096,0 -2.07971,1.00851 -2.54932,1.00851 h -2.7341 c -1.10159,0 -1.67548,0.73359 -1.97818,1.50891 l -0.20062,0.6001 -0.11389,0.758 c -0.0246,0.2431 -0.0246,0.40588 -0.0246,0.40588 h 6.5943 l 1.35431,-1.0065 h 2.7507 c -1.73261,1.0651 -3.5871,2.20761 -4.2897,2.6355 -0.94162,0.57672 -1.05652,1.50992 -0.91993,2.3288 l 0.14661,0.6358 0.2829,0.68652 c 0.1051,0.22339 0.18271,0.36429 0.18271,0.36429 l 11.173,-6.59839 h 6.0813 c 0,0 -0.004,-0.15982 -0.0275,-0.4049 l -0.18841,-0.78501 z"
   id="path1001" />
			<path
   style="fill:#636363"
   d="m 367.38028,281.74881 -0.62009,0.8309 0.3685,5.4112 1.03281,-1.3927 0.74298,0.0902 4.2623,7.39753 c 0,0 0.055,-0.0347 0.14441,-0.0903 l 0.5299,-0.4328 0.46271,-0.41202 c 0.61621,-0.66809 1.1351,-1.63898 0.51599,-2.72388 -0.1672,-0.28891 -0.44229,-0.76941 -0.77938,-1.35702 l 12.60189,5.98281 5.15259,-1.21692 -20.65259,-9.78198 c -0.457,-0.78421 -1.08401,-1.97641 -1.08401,-1.97641 -0.36759,-0.5697 -1.7356,-0.78229 -2.67801,-0.32858 z"
   id="path1003" />
			<polygon
   points="349.4136,221.5159 392.642,221.5159 384.49789,213.2211 "
   id="polygon1005" />
			<path
   style="fill:#4b4b4b"
   d="m 366.08801,283.48511 -6.71243,0.86059 c 0,0 -2.00369,2.56909 -3.0267,3.9429 -0.65848,0.88651 -0.42069,1.7909 0.0108,2.5026 l 0.40543,0.52579 0.47998,0.5433 c 0.17492,0.1618 0.30362,0.26102 0.30362,0.26102 l 3.42007,-4.60001 2.75961,-0.39111 c -1.31991,1.7818 -2.72909,3.67492 -3.22049,4.341 -0.6585,0.8855 -0.41861,1.79282 0.0157,2.5025 l 0.436,0.5615 0.4455,0.5057 c 0.176,0.16571 0.30469,0.26511 0.30469,0.26511 l 5.41891,-7.31509 -0.3685,-5.4112 z"
   id="path1007" />
			<path
   style="fill:#4b4b4b"
   d="m 411.3291,294.27899 c -1.0488,-0.8356 -2.1557,-1.7196 -3.29611,-2.6337 v 9.58789 l -0.4885,0.0606 -15.74969,-7.45801 -5.1525,1.21702 19.64139,9.3262 2.01459,2.59689 3.23132,-0.46359 1.2186,-3.06049 -1.4191,-1.82641 v -7.34641 z"
   id="path1009" />
			<path
   d="m 397.24719,213.1913 c 0,0 -3.75519,1.6796 -4.67389,1.6796 -0.91501,0 -1.77301,-0.7524 -1.77301,-1.6796 0,-0.9281 0.858,-1.6807 1.77301,-1.6807 0.9187,0 4.67389,1.6807 4.67389,1.6807 z"
   id="path1011" />
			<path
   d="m 358.79358,234.0161 c -2.35538,-4.16989 0.40311,-6.7189 2.33841,-8.67571 1.4006,-1.4227 2.6141,-2.64409 2.63989,-4.4404 0.0348,-2.35798 -1.30499,-2.78859 -4.5997,-3.26719 -1.95828,-0.2852 -3.98309,-0.57871 -5.13458,-2.06369 -0.65192,-0.84922 -0.9173,-1.83901 -0.76422,-2.85941 0.3414,-2.2811 2.67941,-3.98421 2.94232,-4.1705 0.66089,-0.4635 1.5628,-0.29761 2.01629,0.3636 0.45929,0.66251 0.29789,1.5739 -0.35791,2.03681 -0.51858,0.3692 -1.61779,1.38859 -1.7406,2.20919 -0.0216,0.1646 -0.0165,0.35331 0.1904,0.6216 0.42801,0.5575 1.93122,0.7749 3.2569,0.96829 2.85211,0.41481 7.16071,1.04021 7.08392,6.20391 -0.0417,2.9808 -1.86969,4.8318 -3.48181,6.4647 -1.83731,1.8554 -3.33401,3.2134 -2.34079,5.83409 0.65109,1.71811 3.59668,2.62871 3.03058,3.64521 -0.5336,0.95829 -3.92419,-0.8259 -5.0791,-2.8705 z"
   id="path1013" />
			<path
   d="m 419.31989,300.60291 c 0,0 -1.2779,-1.00251 -3.29722,-2.59891 v 6.0444 h 0.0384 l -1.6333,2.85489 1.59487,2.79651 v 23.66751 l 3.29722,-1.4989 v -22.11102 l 1.6343,-2.8541 -1.6343,-2.85489 z"
   id="path1015" />
			<line
   style="fill:#636363"
   x1="443.8956"
   y1="306.03391"
   x2="442.2348"
   y2="308.24951"
   id="line1017" />
			<path
   style="fill:#636363"
   d="m 443.2923,261.927 c -5.0268,-5.2016 -10.98529,-9.38679 -17.61011,-12.17621 l -1.6608,2.21572 c 6.54608,4.46098 10.85349,11.1259 13.4401,15.26448 4.7994,7.47781 9.9411,18.44592 13.04809,33.02151 0.67951,2.93091 1.23581,6.02649 1.62741,9.3133 l 6.92551,4.85629 c 3.53198,-20.0304 -3.1763,-39.4642 -15.7702,-52.49509 z"
   id="path1019" />
			<path
   style="fill:#e3c029"
   d="m 547.38806,272.52359 v 0 c -8.5e-4,-0.002 -0.003,-0.002 -0.004,-0.004 9.7e-4,0.001 0.003,0.002 0.004,0.004 z m 75.25696,2.5322 -39.98541,-30.6641 c 0.84478,3.07621 2.45898,5.98342 4.8731,8.3965 l 24.30268,24.3037 c 3.48047,3.4776 3.48047,9.13483 0,12.61532 -6.50293,6.50879 -15.45703,-2.51962 -15.45703,-2.51962 l -8.33106,-8.1904 -40.65924,-6.4736 c 4.90045,4.72461 9.91901,10.9433 12.04791,18.0058 0.68164,2.19052 1.07233,4.4541 1.07233,6.76471 0,0 0.0566,52.12011 0.0673,58.66211 l 20.4961,-23.48932 0.1416,-17.9101 10.84381,-17.68359 c 3.59759,3.59961 8.38574,5.58099 13.47564,5.58099 5.0918,0 9.87885,-1.98138 13.47455,-5.58099 5.89453,-5.89551 7.09082,-14.70999 3.63776,-21.81741 z"
   id="path1021" />
		</g>
	</g>
</g>
</svg>
