<svg width="24" height="25" viewBox="0 0 24 25" fill="none" xmlns="http://www.w3.org/2000/svg">
<path d="M12.0001 5.49005L19.5301 18.5001H4.47012L12.0001 5.49005ZM2.74012 17.5001C1.97012 18.8301 2.93012 20.5001 4.47012 20.5001H19.5301C21.0701 20.5001 22.0301 18.8301 21.2601 17.5001L13.7301 4.49005C12.9601 3.16005 11.0401 3.16005 10.2701 4.49005L2.74012 17.5001ZM11.0001 10.5001V12.5001C11.0001 13.0501 11.4501 13.5001 12.0001 13.5001C12.5501 13.5001 13.0001 13.0501 13.0001 12.5001V10.5001C13.0001 9.95005 12.5501 9.50005 12.0001 9.50005C11.4501 9.50005 11.0001 9.95005 11.0001 10.5001ZM11.0001 15.5001H13.0001V17.5001H11.0001V15.5001Z" fill="#704000"/>
</svg>
