<svg width="19" height="18" viewBox="0 0 19 18" fill="none" xmlns="http://www.w3.org/2000/svg">
<path d="M4.04 2C4.1 2.89 4.25 3.76 4.49 4.59L3.29 5.79C2.88 4.59 2.62 3.32 2.53 2H4.04ZM13.9 14.02C14.75 14.26 15.62 14.41 16.5 14.47V15.96C15.18 15.87 13.91 15.61 12.7 15.21L13.9 14.02ZM5 0H1.5C0.95 0 0.5 0.45 0.5 1C0.5 10.39 8.11 18 17.5 18C18.05 18 18.5 17.55 18.5 17V13.51C18.5 12.96 18.05 12.51 17.5 12.51C16.26 12.51 15.05 12.31 13.93 11.94C13.83 11.9 13.72 11.89 13.62 11.89C13.36 11.89 13.11 11.99 12.91 12.18L10.71 14.38C7.88 12.93 5.56 10.62 4.12 7.79L6.32 5.59C6.6 5.31 6.68 4.92 6.57 4.57C6.2 3.45 6 2.25 6 1C6 0.45 5.55 0 5 0Z" fill="#248641"/>
</svg>
