<?xml version="1.0" encoding="utf-8"?>
<!-- Generator: Adobe Illustrator 19.0.1, SVG Export Plug-In . SVG Version: 6.00 Build 0)  -->
<svg version="1.1" id="Laag_1" xmlns="http://www.w3.org/2000/svg" x="0px" y="0px"
     viewBox="0 0 320 55" style="enable-background:new 0 0 320 55;" xml:space="preserve">
<style type="text/css">
	.st0{fill:#DF0067;}
	.st1{fill:#133370;}
</style>
<g>
	<g>
		<g>
			<g>
				<g>
					<g>
						<g>
							<g>
								<path class="st0" d="M109.6,13.5v29.2h6.3V26.5c0-4.9,2.3-7.5,6.9-7.6h0.3c0.9,0,1.7,0.1,2.3,0.4l0.4-6.2
									c-0.6-0.3-1.4-0.5-2.3-0.5c-1.7,0-3.2,0.5-4.4,1.5c-1.1,0.9-2,2.1-2.8,3.6c0,0.1-0.1,0.1-0.1,0.1c-0.1,0-0.1-0.1-0.1-0.1v-5
									L109.6,13.5z"/>
								<path class="st0" d="M129,1.1v41.6h6.3v-7.9l0-0.1l4.1-4.7c0,0,0.1,0,0.1,0c0,0,0,0,0,0c0,0,0.1,0,0.1,0.1l6.1,9.4
									c1.6,2.3,3.6,3.5,6.1,3.5c0.8,0,1.7-0.2,2.6-0.5v-5.8c-0.3,0.1-0.7,0.1-1,0.1c-1.2,0-2.2-0.6-3-1.9l-3.3-4.8
									c-0.9-1.3-2-2.9-3.1-4.7c0,0,0-0.1,0-0.2l3.1-3.6l7.5-8.9h-7.3l-11.8,13.6c0,0-0.1,0.1-0.1,0c-0.1,0-0.1-0.1-0.1-0.1V0.2
									L129,1.1z"/>
								<path class="st0" d="M210.5,42.8V23.9c0-3.4-1-6.1-3.1-8.3c-2-2.1-4.3-3.1-7.2-3.1c-3.3,0-5.9,1.2-8,3.7c0,0-0.1,0.1-0.1,0
									c0,0-0.1-0.1-0.1-0.1v-3.3l-6.2,0.9v29.1h6.2V24.7c0-2.1,0.6-3.8,1.8-5.1c1.1-1.2,2.5-1.8,4.1-1.8c1.7,0,3.1,0.6,4.3,1.8
									c1.2,1.3,1.8,3,1.8,5.1v18.1H210.5z"/>
								<path class="st0" d="M241.3,42.8V23.9c0-3.4-1-6.1-3.1-8.3c-2-2.1-4.3-3.1-7.2-3.1c-3.3,0-5.9,1.2-8,3.7c0,0-0.1,0.1-0.1,0
									c-0.1,0-0.1-0.1-0.1-0.1v-3.3l-6.2,0.9v29.1h6.2V24.7c0-2.1,0.6-3.8,1.8-5.1c1.1-1.2,2.5-1.8,4.1-1.8c1.7,0,3.1,0.6,4.3,1.8
									c1.2,1.3,1.8,3,1.8,5.1v18.1H241.3z"/>
								<g>
									<polygon class="st0" points="254.8,42.8 254.8,13.6 248.5,13.5 248.5,42.8 									"/>
								</g>
								<path class="st0" d="M286.9,42.8V23.9c0-3.4-1.1-6.1-3.1-8.3c-2-2.1-4.4-3.1-7.3-3.1c-3.3,0-6,1.2-8.1,3.7
									c0,0-0.1,0.1-0.1,0c-0.1,0-0.1-0.1-0.1-0.1v-3.3l-6.3,0.9v29.1h6.3V24.7c0-2.1,0.6-3.8,1.8-5.1c1.1-1.2,2.5-1.8,4.2-1.8
									c0,0,0,0,0,0c1.7,0,3.2,0.6,4.3,1.8c1.2,1.3,1.9,3,1.9,5.1v18.1H286.9z"/>
								<path class="st0" d="M305.7,54.7c2.7,0,6-1.1,8.1-3.1c2.4-2.3,3.6-5.3,3.6-9v-30l-6.3,1v2.4c0,0.1,0,0.1-0.1,0.1
									c-0.1,0-0.1,0-0.1,0c-2.1-2.5-4.8-3.7-8.1-3.7c-2.9,0-5.3,1-7.3,3.1c-2.1,2.1-3.1,4.8-3.1,8V32c0,3.2,1,5.8,3.1,7.9
									c2,2,4.4,3,7.3,3c3.4,0,6.1-1.2,8.1-3.6c0,0,0.1-0.1,0.1,0c0,0,0.1,0.1,0.1,0.1v4c0,1.8-0.5,3.2-1.5,4.2
									c-1,0.9-2.5,1.4-4.4,1.4c-3.4,0-6.3-1.2-8.8-3.5l-0.7,7C298.4,54,301.8,54.7,305.7,54.7z M309.2,35.6
									c-1.2,1.1-2.6,1.7-4.2,1.7c0,0,0,0,0,0c-1.7,0-3.1-0.6-4.3-1.7c-1.2-1.2-1.9-2.8-1.9-4.7v-6.6c0-1.9,0.6-3.5,1.9-4.7
									c1.2-1.1,2.6-1.6,4.3-1.6c1.6,0,3,0.5,4.2,1.6c1.2,1.2,1.8,2.8,1.8,4.7v6.6C311,32.8,310.4,34.4,309.2,35.6z"/>
							</g>
							<g>
								<rect x="41.5" y="25" class="st0" width="7.1" height="17.9"/>
								<rect x="41.5" y="0.5" class="st0" width="7.1" height="17.5"/>
								<polygon class="st0" points="67.2,0.5 67.2,18 52.1,18 49.1,24.9 67.2,24.9 67.2,42.8 74.3,42.8 74.3,0.5 								"/>
							</g>
							<path class="st1" d="M13.8,42.8c-6.4,0-11.6-5.2-11.6-11.7l0,0V12.2c0-6.4,5.2-11.7,11.6-11.7l0,0H35v7.3H13.8
								c-2.4,0-4.4,2-4.4,4.4l0,0v18.9c0,2.4,2,4.4,4.4,4.4l0,0H35v7.3H13.8L13.8,42.8z"/>
						</g>
					</g>
				</g>
				<polygon class="st1" points="14.1,18 14.1,24.9 30.4,24.9 33.5,18 				"/>
				<path class="st0" d="M86.2,31c0,1.8,0.7,3.5,2,4.8c1.2,1.2,2.8,1.8,4.5,1.8c2.1,0,4.1-0.4,6-1.3c1.6-0.8,3.1-1.8,4.4-3.1
					l-0.2,6.7c0,0-0.1,0-0.1,0.1l-1.3,0.8c-0.7,0.4-1.4,0.8-2.2,1.1c-1,0.4-2,0.7-3.2,0.9c-1.3,0.2-2.8,0.3-4.3,0.3
					c-3.4,0-6.3-1.2-8.6-3.7c-2.3-2.5-3.5-5.8-3.5-9.9v-3.3c0-4,1.3-7.3,3.8-9.9c2.5-2.6,5.7-3.8,9.5-3.8c3.2,0,5.9,0.9,8,2.8
					c2.1,1.9,3.2,4.3,3.2,7.2v0.2c0,5.1-3.2,7.6-9.7,7.6H88v-5h5.8c1.3,0,2.4-0.3,3.1-0.9c0.7-0.6,1-1.5,1-2.6
					c0-1.2-0.4-2.1-1.2-2.8c-0.8-0.6-2-0.9-3.6-0.9c-2.3,0-4.1,0.8-5.3,2.2c-1,1.2-1.5,2.8-1.5,4.8C86.2,25.3,86,27.7,86.2,31z"/>
				<path class="st0" d="M163.2,31.1c0.1,1.8,0.7,3.5,2,4.8c1.2,1.2,2.7,1.8,4.5,1.8c2.1,0,4.1-0.4,6-1.3c1.6-0.8,3.1-1.8,4.4-3.1
					l-0.2,6.7c0,0-0.1,0-0.1,0.1l-1.3,0.8c-0.7,0.4-1.4,0.8-2.2,1.1c-1,0.4-2,0.7-3.2,0.9c-1.3,0.2-2.8,0.3-4.3,0.3
					c-3.4,0-6.3-1.2-8.6-3.7c-2.3-2.5-3.5-5.8-3.5-9.9v-3.3c0-4,1.3-7.3,3.8-9.9c2.5-2.6,5.7-3.8,9.5-3.8c3.2,0,5.9,0.9,8,2.8
					c2.1,1.9,3.2,4.3,3.2,7.2v0.2c0,5.1-3.2,7.6-9.7,7.6H165v-5h5.8c1.3,0,2.4-0.3,3.1-0.9c0.7-0.6,1-1.5,1-2.6
					c0-1.2-0.4-2.1-1.2-2.8c-0.8-0.6-2-0.9-3.6-0.9c-2.3,0-4.1,0.7-5.3,2.2c-1,1.2-1.5,2.8-1.5,4.8C163.2,25.3,163,27.8,163.2,31.1z
					"/>
			</g>
		</g>
	</g>
	<path class="st0" d="M255.5,5.3c0-2.5-1.2-3.8-3.8-3.9h-0.3c-2.5,0-3.7,1.3-3.7,3.9c0,2.7,1.2,3.9,3.7,3.9h0.4
		C254.3,9.2,255.5,8,255.5,5.3z"/>
</g>
</svg>
