<?xml version="1.0" encoding="utf-8"?>
<!-- Generator: Adobe Illustrator 19.0.0, SVG Export Plug-In . SVG Version: 6.00 Build 0)  -->
<svg version="1.1" id="Laag_1" xmlns="http://www.w3.org/2000/svg" x="0px" y="0px"
     viewBox="0 0 97.7 23" style="enable-background:new 0 0 97.7 23;" xml:space="preserve">
<style type="text/css">
	.st0{fill:#043775;}
	.st1{fill:#E3056F;}
	.st2{fill:#FFFFFF;}
	.st3{font-family:'MyriadPro-Semibold';}
	.st4{font-size:15.5589px;}
</style>
<polyline id="XMLID_134_" class="st0" points="-0.1,0 -0.1,23 36.8,23 47.2,0 -0.1,0 "/>
<rect id="XMLID_133_" x="21" y="12.6" class="st1" width="2.5" height="6.2"/>
<rect id="XMLID_132_" x="21" y="4.1" class="st1" width="2.5" height="6.1"/>
<polyline id="XMLID_131_" class="st1" points="30,4.1 30,10.2 24.7,10.2 23.6,12.5 30,12.5 30,18.8 32.4,18.8 32.4,4.1 30,4.1 "/>
<path id="XMLID_130_" class="st2" d="M11.4,18.8c-2.2,0-4-1.8-4-4V8.1c0-2.2,1.8-4,4-4h7.4v2.5h-7.4c-0.8,0-1.5,0.7-1.5,1.5v6.6
	c0,0.8,0.7,1.5,1.5,1.5h7.4v2.5H11.4"/>
<polyline id="XMLID_129_" class="st2" points="11.5,10.2 11.5,12.5 17.2,12.5 18.3,10.2 11.5,10.2 "/>
<polygon id="XMLID_127_" class="st1" points="65.1,23 38.7,23 49.1,0 75.6,0 "/>
<polygon id="XMLID_126_" class="st1" points="97.5,23 67.2,23 77.6,0 97.5,0 "/>
<text id="XMLID_125_" transform="matrix(1 0 0 1 53.2256 16.208)" class="st2 st3 st4">3 </text>
<text id="XMLID_124_" transform="matrix(1 0 0 1 80.8911 16.2079)" class="st2 st3 st4">4 </text>
</svg>
